<svg width="22" height="20" viewBox="0 0 22 20" fill="none" xmlns="http://www.w3.org/2000/svg">
<g clip-path="url(#clip0_1480_1784)">
<path d="M9.19286 16.24C8.17143 16.24 7.30714 17.04 7.30714 18.16C7.30714 19.2 8.17143 20.08 9.19286 20.08C10.2143 20.08 11.0786 19.28 11.0786 18.16C11.1571 17.12 10.2929 16.24 9.19286 16.24ZM9.19286 18.96C8.72143 18.96 8.32857 18.64 8.32857 18.16C8.32857 17.68 8.72143 17.36 9.19286 17.36C9.66429 17.36 10.0571 17.68 10.0571 18.16C10.0571 18.64 9.66429 18.96 9.19286 18.96Z" fill="white"/>
<path d="M16.0286 16.24C15.0071 16.24 14.1429 17.04 14.1429 18.16C14.1429 19.2 15.0071 20.08 16.0286 20.08C17.05 20.08 17.9143 19.28 17.9143 18.16C17.9143 17.12 17.05 16.24 16.0286 16.24ZM16.0286 18.96C15.5571 18.96 15.1643 18.64 15.1643 18.16C15.1643 17.68 15.5571 17.36 16.0286 17.36C16.5 17.36 16.8929 17.68 16.8929 18.16C16.8143 18.64 16.5 18.96 16.0286 18.96Z" fill="white"/>
<path d="M16.5 6.15991H8.72143C8.40715 6.15991 8.17143 6.39991 8.17143 6.71991C8.17143 7.03991 8.40715 7.27991 8.72143 7.27991H16.5C16.8143 7.27991 17.05 7.03991 17.05 6.71991C17.05 6.39991 16.7357 6.15991 16.5 6.15991Z" fill="white"/>
<path d="M16.1071 8.95996H9.19285C8.87857 8.95996 8.64285 9.19996 8.64285 9.51996C8.64285 9.83996 8.87857 10.08 9.19285 10.08H16.1071C16.4214 10.08 16.6571 9.83996 16.6571 9.51996C16.5786 9.19996 16.3429 8.95996 16.1071 8.95996Z" fill="white"/>
<path d="M21.7643 3.84005C21.5286 3.60005 21.2143 3.44005 20.9786 3.44005H4.08571L3.77143 1.84005C3.69286 1.44005 3.45714 1.20005 3.14286 1.04005L0.785713 4.57894e-05C0.471427 -0.0799542 0.235713 4.58006e-05 0.0785699 0.320046C-0.078573 0.640046 0.0785699 0.880046 0.392856 1.04005L2.75 2.08005L5.34286 14.56C5.42143 15.04 5.89286 15.36 6.36428 15.36H19.3286C19.6429 15.36 19.8786 15.12 19.8786 14.8C19.8786 14.48 19.6429 14.24 19.3286 14.24H6.36428L6.05 12.8H19.4071C19.9571 12.8 20.35 12.48 20.4286 12L22 4.72005C22.0786 4.40005 21.9214 4.08005 21.7643 3.84005ZM19.4071 11.76H5.81428L4.32143 4.48005H20.9L19.4071 11.76Z" fill="white"/>
</g>
<defs>
<clipPath id="clip0_1480_1784">
<rect width="22" height="20" fill="white"/>
</clipPath>
</defs>
</svg>
