<svg width="30" height="30" viewBox="0 0 30 30" fill="none" xmlns="http://www.w3.org/2000/svg">
<rect width="30" height="30" rx="15" fill="white"/>
<path fill-rule="evenodd" clip-rule="evenodd" d="M20.5812 12.4908L14.1262 18.9448C14.1086 18.9626 14.0875 18.9768 14.0644 18.9865C14.0412 18.9961 14.0163 19.0011 13.9912 19.0011C13.9661 19.0011 13.9413 18.9961 13.9181 18.9865C13.8949 18.9768 13.8739 18.9626 13.8562 18.9448L10.0562 15.1448C10.0384 15.1272 10.0243 15.1063 10.0146 15.0832C10.005 15.0601 10 15.0353 10 15.0103C10 14.9853 10.005 14.9605 10.0146 14.9374C10.0243 14.9143 10.0384 14.8934 10.0562 14.8758L11.2222 13.7098C11.2399 13.692 11.2609 13.6778 11.2841 13.6681C11.3073 13.6585 11.3321 13.6535 11.3572 13.6535C11.3823 13.6535 11.4072 13.6585 11.4304 13.6681C11.4535 13.6778 11.4746 13.692 11.4922 13.7098L13.9912 16.2088L19.1452 11.0558C19.1629 11.0381 19.1838 11.0241 19.2069 11.0145C19.23 11.0049 19.2547 11 19.2797 11C19.3047 11 19.3294 11.0049 19.3525 11.0145C19.3756 11.0241 19.3966 11.0381 19.4142 11.0558L20.5812 12.2218C20.5989 12.2394 20.6129 12.2604 20.6225 12.2835C20.6321 12.3066 20.637 12.3313 20.637 12.3563C20.637 12.3813 20.6321 12.406 20.6225 12.4291C20.6129 12.4522 20.5989 12.4732 20.5812 12.4908Z" fill="#F9991C"/>
</svg>
