<svg width="12" height="12" viewBox="0 0 12 12" fill="none" xmlns="http://www.w3.org/2000/svg">
<path fill-rule="evenodd" clip-rule="evenodd" d="M11.6561 1.75638L7.41347 5.99902L11.6561 10.2417C11.8436 10.4292 11.949 10.6836 11.949 10.9488C11.949 11.214 11.8436 11.4683 11.6561 11.6559C11.4686 11.8434 11.2142 11.9488 10.949 11.9488C10.6838 11.9488 10.4294 11.8434 10.2419 11.6559L5.99926 7.41324L1.75661 11.6559C1.56908 11.8434 1.31472 11.9488 1.04951 11.9488C0.784292 11.9488 0.529938 11.8434 0.342401 11.6559C0.154865 11.4683 0.0495075 11.214 0.0495076 10.9488C0.0495077 10.6836 0.154865 10.4292 0.342401 10.2417L4.58504 5.99902L0.342401 1.75638C0.154865 1.56885 0.0495077 1.31449 0.0495076 1.04928C0.0495075 0.78406 0.154865 0.529706 0.342401 0.342169C0.529938 0.154633 0.784292 0.0492754 1.04951 0.0492755C1.31472 0.0492756 1.56908 0.154633 1.75661 0.342169L5.99926 4.58481L10.2419 0.342169C10.4294 0.154633 10.6838 0.0492753 10.949 0.0492753C11.2142 0.0492753 11.4686 0.154633 11.6561 0.342169C11.8436 0.529706 11.949 0.78406 11.949 1.04928C11.949 1.31449 11.8436 1.56885 11.6561 1.75638Z" fill="#F9991C"/>
</svg>
