<svg width="12" height="12" viewBox="0 0 12 12" fill="none" xmlns="http://www.w3.org/2000/svg">
<path fill-rule="evenodd" clip-rule="evenodd" d="M11.6559 1.75638L7.41322 5.99902L11.6559 10.2417C11.8434 10.4292 11.9488 10.6836 11.9488 10.9488C11.9488 11.214 11.8434 11.4683 11.6559 11.6559C11.4683 11.8434 11.214 11.9488 10.9488 11.9488C10.6835 11.9488 10.4292 11.8434 10.2417 11.6559L5.99901 7.41324L1.75637 11.6559C1.56883 11.8434 1.31448 11.9488 1.04926 11.9488C0.784048 11.9488 0.529694 11.8434 0.342157 11.6559C0.154621 11.4683 0.0492634 11.214 0.0492635 10.9488C0.0492636 10.6836 0.154621 10.4292 0.342157 10.2417L4.5848 5.99902L0.342157 1.75638C0.154621 1.56885 0.0492636 1.31449 0.0492635 1.04928C0.0492634 0.78406 0.154621 0.529706 0.342157 0.342169C0.529694 0.154633 0.784048 0.0492754 1.04926 0.0492755C1.31448 0.0492756 1.56883 0.154633 1.75637 0.342169L5.99901 4.58481L10.2417 0.342169C10.4292 0.154633 10.6835 0.0492753 10.9488 0.0492753C11.214 0.0492753 11.4683 0.154633 11.6559 0.342169C11.8434 0.529706 11.9488 0.78406 11.9488 1.04928C11.9488 1.31449 11.8434 1.56885 11.6559 1.75638Z" fill="#555555"/>
</svg>
