<svg width="48" height="52" viewBox="0 0 48 52" fill="none" xmlns="http://www.w3.org/2000/svg">
<path fill-rule="evenodd" clip-rule="evenodd" d="M12.4766 0.150793C11.0684 0.476678 9.68299 1.59166 9.07136 2.89145C8.76951 3.53308 8.76498 3.65875 8.69514 13.5381L8.62445 23.5354L5.23122 23.6048C1.98362 23.6713 1.81523 23.6881 1.30653 23.9987C1.01429 24.1772 0.600742 24.6145 0.387534 24.9707L0 25.6182V34.3658C0 39.177 0.0486362 43.2841 0.108018 43.4928C0.26552 44.045 1.04271 44.8544 1.69534 45.1456C2.18962 45.3661 2.67358 45.3988 5.47865 45.4015L8.69514 45.4045V46.7878C8.69514 47.8658 8.76258 48.3483 9.00095 48.9737C9.41521 50.0612 10.5811 51.2084 11.7359 51.665L12.5832 52H28.2769C43.335 52 43.9991 51.9893 44.6775 51.737C46.2388 51.1561 47.4186 49.9056 47.8127 48.4137C47.9632 47.8439 48 44.4006 48 30.9005V14.0965L40.8232 7.04826L33.6464 0L23.3269 0.013885C17.6511 0.0216607 12.7686 0.083172 12.4766 0.150793ZM32.335 6.90788C32.3753 11.669 32.3896 11.8986 32.6851 12.5268C33.1446 13.5036 34.1484 14.4792 35.1716 14.9432L36.053 15.3431L41.0368 15.3845L46.0206 15.4257V31.4058C46.0206 43.6477 45.9799 47.5194 45.8467 47.9572C45.6223 48.6949 44.7053 49.5955 43.9541 49.8159C43.1815 50.0426 13.5773 50.0634 12.7499 49.8378C12.0918 49.6583 11.1238 48.8279 10.865 48.2207C10.753 47.9579 10.6745 47.2577 10.6745 46.5198V45.2657H21.3399C28.5167 45.2657 32.1354 45.2175 32.4032 45.1184C32.943 44.9184 33.7113 44.1832 33.9491 43.6386C34.1083 43.2743 34.1443 41.5638 34.1443 34.3633C34.1443 26.4993 34.1193 25.4864 33.9151 25.0905C33.5885 24.4571 33.3041 24.1722 32.6598 23.8331C32.0979 23.5373 32.0258 23.5351 21.3816 23.4965L10.669 23.4576L10.707 13.6153L10.7452 3.77274L11.1694 3.18137C11.4027 2.85618 11.8739 2.44463 12.2166 2.26703L12.8398 1.94393H22.5664H32.293L32.335 6.90788ZM40.6842 13.4407C38.1418 13.4685 36.7158 13.4299 36.3358 13.323C35.559 13.1044 34.9087 12.5908 34.5319 11.8985C34.2279 11.34 34.2133 11.1535 34.1727 7.28972L34.1306 3.26302L39.2988 8.33111L44.4671 13.3992L40.6842 13.4407ZM31.9592 25.7508L32.3063 26.0915V34.4352V42.779L31.9574 43.1217L31.6083 43.4645L17.0288 43.4278L2.4492 43.3912L2.17888 43.0634C1.91958 42.7489 1.90869 42.4013 1.90869 34.4801C1.90869 28.9044 1.95761 26.135 2.05926 25.9483C2.14212 25.7963 2.34896 25.6169 2.51876 25.5497C2.68913 25.4824 9.2833 25.4235 17.2199 25.4186L31.6123 25.4099L31.9592 25.7508ZM25.7957 30.3123C23.858 30.8486 22.6362 32.4176 22.6392 34.3658C22.6431 37.0673 25.1172 39.0197 27.8345 38.4657C28.5984 38.3099 29.9027 37.588 30.0063 37.2635C30.034 37.177 29.7994 36.9064 29.4851 36.6619L28.9137 36.2174L28.4235 36.5148C27.2622 37.2198 26.1728 37.1308 25.2358 36.2546C24.2836 35.364 24.1657 33.999 24.9494 32.9366C25.7359 31.8702 27.0959 31.596 28.2639 32.2682L28.9217 32.6468L29.4829 32.2103C29.7917 31.9702 30.0442 31.7282 30.0442 31.6725C30.0442 31.6168 29.8692 31.4068 29.6554 31.2057C28.7762 30.3788 27.0222 29.9728 25.7957 30.3123ZM15.816 30.4209C13.8828 30.9712 12.4997 33.1963 12.9265 35.0694C13.5863 37.9651 16.7362 39.4177 19.2359 37.9789C20.9004 37.0209 21.6882 34.8858 21.0613 33.032C20.7257 32.0395 19.5178 30.8318 18.5315 30.5024C17.7847 30.253 16.5373 30.2155 15.816 30.4209ZM4.06268 34.4005L4.10015 38.3925L6.22091 38.3843C8.22391 38.3764 8.38876 38.3549 9.18999 37.9949C10.7882 37.2768 11.5242 36.2652 11.6325 34.638C11.7181 33.3518 11.3444 32.4563 10.359 31.5861C9.32501 30.6732 8.32754 30.4085 5.92104 30.4085H4.02507L4.06268 34.4005ZM17.9243 31.9442C18.2181 32.0244 18.6888 32.2886 18.9704 32.5315C20.7927 34.1027 19.68 36.9743 17.2489 36.9743C15.3387 36.9743 14.1086 35.0972 14.8991 33.3882C15.1976 32.7426 15.8978 32.1116 16.4468 31.9931C16.6547 31.9483 16.8884 31.8908 16.9661 31.8652C17.2182 31.7828 17.3812 31.7961 17.9243 31.9442ZM8.23819 32.1509C9.31907 32.5944 9.82622 33.3373 9.82622 34.4772C9.82622 35.3428 9.47459 35.9715 8.70617 36.48C8.30464 36.7457 8.04251 36.7957 7.0483 36.7957H5.86745V34.3658V31.9359H6.79097C7.30477 31.9359 7.94694 32.0313 8.23819 32.1509Z" fill="#CECECE"/>
</svg>
