<svg width="51" height="50" viewBox="0 0 51 50" fill="none" xmlns="http://www.w3.org/2000/svg">
<g clip-path="url(#clip0_1476_1818)">
<path fill-rule="evenodd" clip-rule="evenodd" d="M20.9064 0.341121C20.5286 0.718947 20.3993 1.16588 20.5024 1.73741C20.6031 2.29564 35.8794 17.5716 36.4377 17.6723C37.5777 17.8779 38.4342 17.0215 38.2286 15.8814C38.1699 15.5558 37.2877 14.6391 30.41 7.75719L22.6577 0H21.9527C21.2779 0 21.2329 0.0146824 20.9064 0.341121ZM0.734137 14.7347C0.174235 15.0189 0.00097885 15.3409 0.000489425 16.0986L0 16.7807L3.25468 20.0314C6.08375 22.8569 6.55731 23.2908 6.87642 23.3489C8.0159 23.5563 8.87611 22.6957 8.66556 21.5586C8.58862 21.1425 2.61167 15.025 1.99744 14.7335C1.59778 14.5439 1.10923 14.5444 0.734137 14.7347ZM15.3893 14.7473C14.7183 15.078 14.4017 15.9797 14.7206 16.6518C15.0293 17.3022 36.0145 38.1508 36.4377 38.2274C37.5775 38.4338 38.4347 37.5765 38.2284 36.4368C38.1538 36.0251 17.3079 15.0313 16.6757 14.7314C16.2765 14.5419 15.7937 14.5479 15.3893 14.7473ZM43.0204 17.8103C38.3341 18.8284 36.6803 24.5714 40.1344 27.8327C43.3923 30.9087 48.7123 29.3535 49.8259 24.9996C50.8658 20.9334 47.0755 16.9294 43.0204 17.8103ZM45.3413 20.9242C47.6051 21.9256 47.6014 25.2275 45.3353 26.2648C43.949 26.8996 42.1063 26.1994 41.4887 24.8032C40.4049 22.3529 42.8975 19.8432 45.3413 20.9242ZM11.8784 23.5801C9.61015 24.2292 8.26257 26.6198 8.86368 28.9282C9.72076 32.2196 13.9662 33.3078 16.2886 30.8315C19.362 27.5545 16.1938 22.3451 11.8784 23.5801ZM13.765 26.532C14.2049 26.745 14.5849 27.3319 14.5849 27.7986C14.5849 28.2653 14.2049 28.8522 13.765 29.0652C12.479 29.6878 11.2268 28.4375 11.8491 27.1521C12.2045 26.4178 12.9983 26.161 13.765 26.532ZM0.734137 32.3536C0.173942 32.6379 0.00097885 32.9597 0.000489425 33.719L0 34.4025L6.28911 40.6865C13.098 47.49 12.7679 47.2054 13.6564 47.0387C14.1048 46.9546 14.6592 46.4028 14.7181 45.9818C14.9062 44.637 14.995 44.2615 15.2575 43.7007C16.3113 41.4489 18.9236 40.6229 21.3007 41.7899C22.4553 42.3567 23.1523 42.2747 23.6617 41.5122C25.1684 39.257 19.9258 37.3511 16.3398 38.8503C14.8226 39.4847 12.9761 41.2422 12.4994 42.5056C12.4734 42.5746 10.2204 40.4021 7.32787 37.5187C4.50888 34.7085 2.07839 32.3631 1.92687 32.3064C1.53846 32.1612 1.07742 32.1794 0.734137 32.3536ZM43.0204 38.3656C38.3341 39.3837 36.6803 45.1268 40.1344 48.388C43.3923 51.464 48.7123 49.9088 49.8259 45.5549C50.8658 41.4888 47.0755 37.4847 43.0204 38.3656ZM26.757 41.3947C24.4887 42.0439 23.1411 44.4345 23.7422 46.7428C24.5993 50.0342 28.8447 51.1225 31.1672 48.6461C34.2406 45.3691 31.0723 40.1597 26.757 41.3947ZM45.3413 41.4796C47.6051 42.4809 47.6014 45.7828 45.3353 46.8201C43.949 47.4549 42.1063 46.7548 41.4887 45.3586C40.4049 42.9083 42.8975 40.3986 45.3413 41.4796ZM28.6435 44.3466C29.0834 44.5596 29.4634 45.1465 29.4634 45.6133C29.4634 46.08 29.0834 46.6669 28.6435 46.8798C27.3575 47.5024 26.1053 46.2521 26.7276 44.9667C27.083 44.2324 27.8769 43.9756 28.6435 44.3466Z" fill="#CECECE"/>
</g>
<defs>
<clipPath id="clip0_1476_1818">
<rect width="50" height="50" fill="white" transform="translate(0.5)"/>
</clipPath>
</defs>
</svg>
