<svg width="20" height="20" viewBox="0 0 20 20" fill="none" xmlns="http://www.w3.org/2000/svg">
<path d="M10 1.875C8.55226 1.875 7.1638 2.45012 6.14009 3.47383C5.11638 4.49755 4.54126 5.886 4.54126 7.33375C4.54126 11.6058 8.70876 16.7467 9.80084 18.0096C9.85946 18.0768 9.9423 18.118 10.0313 18.1243C10.1202 18.1305 10.208 18.1013 10.2754 18.0429L10.3088 18.0096C11.3863 16.7417 15.4583 11.6058 15.4583 7.33333C15.4582 5.88573 14.8831 4.49744 13.8595 3.47383C12.8359 2.45022 11.4476 1.87511 10 1.875V1.875ZM10 8.815C9.63387 8.815 9.27595 8.70643 8.97151 8.50301C8.66707 8.29959 8.42979 8.01046 8.28968 7.67219C8.14956 7.33392 8.1129 6.9617 8.18433 6.60259C8.25576 6.24348 8.43208 5.91362 8.69098 5.65472C8.94988 5.39582 9.27974 5.2195 9.63885 5.14807C9.99796 5.07664 10.3702 5.1133 10.7085 5.25342C11.0467 5.39353 11.3359 5.63081 11.5393 5.93525C11.7427 6.23969 11.8513 6.59761 11.8513 6.96375V6.96833C11.85 7.45852 11.6545 7.92822 11.3074 8.2744C10.9604 8.62059 10.4902 8.815 10 8.815V8.815Z" stroke="#555555" stroke-width="1.3" stroke-linecap="round" stroke-linejoin="round"/>
</svg>
