<svg width="20" height="20" viewBox="0 0 20 20" fill="none" xmlns="http://www.w3.org/2000/svg">
<path fill-rule="evenodd" clip-rule="evenodd" d="M10.596 0.219723C10.4109 0.127245 10.2069 0.0791016 10 0.0791016C9.79311 0.0791016 9.58907 0.127245 9.404 0.219723L0.737333 4.55306C0.515892 4.66371 0.329629 4.83383 0.199403 5.04435C0.0691774 5.25488 0.000132198 5.49751 0 5.74506L0 15.9997C0 16.3533 0.140476 16.6925 0.390524 16.9425C0.640573 17.1926 0.979711 17.3331 1.33333 17.3331H18.6667C19.0203 17.3331 19.3594 17.1926 19.6095 16.9425C19.8595 16.6925 20 16.3533 20 15.9997V5.74506C19.9999 5.49751 19.9308 5.25488 19.8006 5.04435C19.6704 4.83383 19.4841 4.66371 19.2627 4.55306L10.596 0.219723V0.219723ZM18.092 5.45706L10 1.41306L1.908 5.45706L10 9.72106L18.092 5.45706ZM1.33333 6.51039V15.9997H18.6667V6.51172L10.28 10.9304C10.1937 10.9759 10.0976 10.9997 10 10.9997C9.90242 10.9997 9.80631 10.9759 9.72 10.9304L1.33333 6.51172V6.51039Z" fill="#555555"/>
</svg>
