<svg width="48" height="52" viewBox="0 0 48 52" fill="none" xmlns="http://www.w3.org/2000/svg">
<path fill-rule="evenodd" clip-rule="evenodd" d="M12.4766 0.150793C11.0684 0.476678 9.68299 1.59166 9.07136 2.89145C8.76951 3.53308 8.76498 3.65874 8.69514 13.5381L8.62445 23.5354L5.23122 23.6048C1.98362 23.6713 1.81523 23.6881 1.30653 23.9987C1.01429 24.1772 0.600742 24.6145 0.387534 24.9707L0 25.6182V34.3658C0 39.177 0.0486362 43.2841 0.108018 43.4928C0.26552 44.045 1.04271 44.8544 1.69534 45.1456C2.18962 45.3661 2.67358 45.3988 5.47865 45.4015L8.69514 45.4045V46.7878C8.69514 47.8658 8.76258 48.3483 9.00095 48.9737C9.41521 50.0612 10.5811 51.2084 11.7359 51.665L12.5832 52H28.2769C43.335 52 43.9991 51.9893 44.6775 51.737C46.2388 51.1561 47.4186 49.9056 47.8127 48.4137C47.9632 47.8439 48 44.4006 48 30.9005V14.0965L40.8232 7.04826L33.6464 0L23.3269 0.013885C17.6511 0.0216607 12.7686 0.083172 12.4766 0.150793ZM32.335 6.90788C32.3753 11.669 32.3896 11.8986 32.6851 12.5268C33.1446 13.5036 34.1484 14.4792 35.1716 14.9432L36.053 15.3431L41.0368 15.3845L46.0206 15.4257V31.4058C46.0206 43.6477 45.9799 47.5194 45.8467 47.9572C45.6223 48.6949 44.7053 49.5955 43.9541 49.8159C43.1815 50.0426 13.5773 50.0634 12.7499 49.8378C12.0918 49.6583 11.1238 48.8279 10.865 48.2207C10.753 47.9579 10.6745 47.2577 10.6745 46.5198V45.2657H21.3399C28.5167 45.2657 32.1354 45.2175 32.4032 45.1184C32.943 44.9184 33.7113 44.1832 33.9491 43.6386C34.1083 43.2743 34.1443 41.5638 34.1443 34.3633C34.1443 26.4993 34.1193 25.4864 33.9151 25.0905C33.5885 24.4571 33.3041 24.1722 32.6598 23.8331C32.0979 23.5373 32.0258 23.5351 21.3816 23.4965L10.669 23.4576L10.707 13.6153L10.7452 3.77274L11.1694 3.18137C11.4027 2.85618 11.8739 2.44463 12.2166 2.26703L12.8398 1.94393H22.5664H32.293L32.335 6.90788ZM40.6842 13.4407C38.1418 13.4685 36.7158 13.4299 36.3358 13.323C35.559 13.1044 34.9087 12.5908 34.5319 11.8985C34.2279 11.34 34.2133 11.1535 34.1727 7.28972L34.1306 3.26302L39.2988 8.33111L44.4671 13.3992L40.6842 13.4407ZM31.9592 25.7508L32.3063 26.0915V34.4352V42.779L31.9574 43.1217L31.6083 43.4645L17.0288 43.4278L2.4492 43.3912L2.17888 43.0634C1.91958 42.7489 1.90869 42.4013 1.90869 34.4801C1.90869 28.9044 1.95761 26.135 2.05926 25.9483C2.14212 25.7963 2.34896 25.6169 2.51876 25.5497C2.68913 25.4824 9.2833 25.4235 17.2199 25.4186L31.6123 25.4099L31.9592 25.7508ZM5.01915 34.4352V38.462H5.86745H6.71576V37.1429V35.8238H7.89179C8.53877 35.8238 9.3834 35.7317 9.7691 35.6192C12.3366 34.8704 12.2888 31.4181 9.69911 30.5666C9.42581 30.4767 8.3127 30.4085 7.11885 30.4085H5.01915V34.4352ZM13.3941 34.4005L13.4315 38.3925L15.5523 38.3843C17.5553 38.3764 17.7201 38.3549 18.5214 37.9949C20.1196 37.2768 20.8556 36.2652 20.9639 34.638C21.0494 33.3518 20.6758 32.4563 19.6903 31.5861C18.6564 30.6732 17.6589 30.4085 15.2524 30.4085H13.3564L13.3941 34.4005ZM22.975 34.4352V38.462H23.894H24.813V36.8652V35.2684H26.7923H28.7717V34.5047V33.741H26.7923H24.813V32.8385V31.9359H27.0751H29.3373V31.1722V30.4085H26.1561H22.975V34.4352ZM9.18956 32.135C9.96491 32.4533 10.0639 33.4184 9.3728 33.9233C9.08861 34.1309 8.69754 34.2195 7.85291 34.2674L6.71576 34.3321V33.1339V31.9359H7.70997C8.25685 31.9359 8.92263 32.0255 9.18956 32.135ZM17.8498 32.2304C19.6169 33.0706 19.7337 35.559 18.0496 36.4886C17.6025 36.7355 17.2678 36.7957 16.346 36.7957H15.1988V34.3658V31.9359H16.2145C16.9608 31.9359 17.3948 32.0141 17.8498 32.2304Z" fill="#CECECE"/>
</svg>
