<svg width="16" height="16" viewBox="0 0 16 16" fill="none" xmlns="http://www.w3.org/2000/svg">
<path opacity="0.3" fill-rule="evenodd" clip-rule="evenodd" d="M14.999 8.99902H8.99899V14.999C8.99899 15.2642 8.89364 15.5186 8.7061 15.7061C8.51856 15.8937 8.26421 15.999 7.99899 15.999C7.73378 15.999 7.47942 15.8937 7.29189 15.7061C7.10435 15.5186 6.99899 15.2642 6.99899 14.999V8.99902H0.998993C0.733776 8.99902 0.479423 8.89367 0.291886 8.70613C0.10435 8.51859 -0.00100708 8.26424 -0.00100708 7.99902C-0.00100708 7.73381 0.10435 7.47945 0.291886 7.29192C0.479423 7.10438 0.733776 6.99902 0.998993 6.99902H6.99899V0.999023C6.99899 0.733807 7.10435 0.479453 7.29189 0.291917C7.47942 0.10438 7.73378 -0.000976562 7.99899 -0.000976562C8.26421 -0.000976562 8.51856 0.10438 8.7061 0.291917C8.89364 0.479453 8.99899 0.733807 8.99899 0.999023V6.99902H14.999C15.2642 6.99902 15.5186 7.10438 15.7061 7.29192C15.8936 7.47945 15.999 7.73381 15.999 7.99902C15.999 8.26424 15.8936 8.51859 15.7061 8.70613C15.5186 8.89367 15.2642 8.99902 14.999 8.99902Z" fill="#555555"/>
</svg>
