<svg width="20" height="20" viewBox="0 0 20 20" fill="none" xmlns="http://www.w3.org/2000/svg">
<circle cx="10" cy="10.001" r="10" fill="#ED1F24"/>
<path d="M12.7854 4.00099H10.5627C8.37872 4.00099 6.52659 5.47424 6.52659 8.33449C6.52659 10.0504 7.42348 11.3155 9.02204 11.9396L6.03909 16.7237C5.94147 16.8798 6.03909 17.001 6.195 17.001H7.57945C7.69631 17.001 7.77471 16.9664 7.81365 16.8799L10.5238 12.1823H11.4986V16.8799C11.4986 16.9315 11.5569 17.001 11.6349 17.001H12.844C12.9609 17.001 13 16.949 13 16.8627L13 4.17431C12.9999 4.05297 12.9219 4.00098 12.7854 4.00098V4.00099ZM11.4986 11.0731H10.6797C9.39293 11.0731 8.14514 10.2412 8.14514 8.16119C8.14514 5.99415 9.31493 5.11021 10.5041 5.11021H11.4986V11.0731H11.4986Z" fill="white"/>
</svg>
