<svg width="50" height="50" viewBox="0 0 50 50" fill="none" xmlns="http://www.w3.org/2000/svg">
<path d="M24.9998 4.1665C13.5123 4.1665 4.1665 13.5123 4.1665 24.9998C4.1665 36.4873 13.5123 45.8332 24.9998 45.8332C36.4873 45.8332 45.8332 36.4873 45.8332 24.9998C45.8332 13.5123 36.4873 4.1665 24.9998 4.1665ZM24.9998 41.6665C15.8103 41.6665 8.33317 34.1894 8.33317 24.9998C8.33317 15.8103 15.8103 8.33317 24.9998 8.33317C34.1894 8.33317 41.6665 15.8103 41.6665 24.9998C41.6665 34.1894 34.1894 41.6665 24.9998 41.6665Z" fill="white"/>
<path d="M20.8313 28.306L16.0418 23.5248L13.1001 26.4748L20.8355 34.1935L34.8063 20.2227L31.8605 17.2769L20.8313 28.306Z" fill="white"/>
</svg>
