<svg width="40" height="40" viewBox="0 0 40 40" fill="none" xmlns="http://www.w3.org/2000/svg">
<path opacity="0.1" d="M20 40C31.0457 40 40 31.0457 40 20C40 8.9543 31.0457 0 20 0C8.9543 0 0 8.9543 0 20C0 31.0457 8.9543 40 20 40Z" fill="#039BE5"/>
<path d="M9.1518 19.567L28.4351 12.132C29.3301 11.8087 30.1118 12.3503 29.8218 13.7037L29.8235 13.702L26.5401 29.1703C26.2968 30.267 25.6451 30.5337 24.7335 30.017L19.7335 26.332L17.3218 28.6553C17.0551 28.922 16.8301 29.147 16.3135 29.147L16.6685 24.0587L25.9351 15.687C26.3385 15.332 25.8451 15.132 25.3135 15.4853L13.8618 22.6953L8.92513 21.1553C7.85347 20.8153 7.83013 20.0837 9.1518 19.567Z" fill="#039BE5"/>
</svg>
