<svg width="40" height="40" viewBox="0 0 40 40" fill="none" xmlns="http://www.w3.org/2000/svg">
<path opacity="0.1" d="M20.0586 39.7656C31.0072 39.7656 39.8828 30.89 39.8828 19.9414C39.8828 8.99281 31.0072 0.117188 20.0586 0.117188C9.10999 0.117188 0.234375 8.99281 0.234375 19.9414C0.234375 30.89 9.10999 39.7656 20.0586 39.7656Z" fill="#7B519D"/>
<path fill-rule="evenodd" clip-rule="evenodd" d="M28.7352 24.5278C28.0973 24.0243 27.4156 23.5725 26.7446 23.1108C25.4064 22.1894 24.1824 22.1177 23.1838 23.6002C22.623 24.4325 21.838 24.469 21.0172 24.1039C18.7544 23.098 17.007 21.5481 15.9835 19.2932C15.5307 18.2956 15.5367 17.4012 16.596 16.6957C17.1569 16.3225 17.7219 15.881 17.6768 15.0657C17.6178 14.0025 14.9849 10.4497 13.9451 10.0747C13.5149 9.91953 13.0864 9.92963 12.6487 10.0739C10.2107 10.8777 9.20088 12.8434 10.168 15.1709C13.0531 22.115 18.1305 26.9492 25.1198 29.8997C25.5183 30.0677 25.9609 30.1349 26.1851 30.1952C27.7763 30.2109 29.6404 28.7079 30.1787 27.2162C30.697 25.7812 29.6016 25.2116 28.7352 24.5278ZM20.8985 10.7867C26.0081 11.557 28.3646 13.939 29.0152 18.9844C29.0756 19.4504 28.8985 20.1517 29.5767 20.1646C30.2856 20.1779 30.1148 19.487 30.1207 19.0205C30.1807 14.2686 25.9544 9.86344 21.0462 9.70102C20.6759 9.75327 19.9097 9.45067 19.8619 10.2644C19.83 10.813 20.4751 10.7228 20.8985 10.7867Z" fill="#7B519D"/>
<path fill-rule="evenodd" clip-rule="evenodd" d="M21.9859 12.5025C21.504 12.4468 20.8678 12.2291 20.7552 12.8703C20.6376 13.5433 21.3467 13.475 21.8023 13.5728C24.8967 14.2359 25.9742 15.3159 26.4837 18.2593C26.5581 18.6884 26.4103 19.3563 27.1708 19.2456C27.7344 19.1633 27.5308 18.5908 27.5779 18.2564C27.6029 15.4305 25.0777 12.8585 21.9859 12.5025Z" fill="#7B519D"/>
<path fill-rule="evenodd" clip-rule="evenodd" d="M21.6162 15.1568C21.2653 15.1652 20.9208 15.2019 20.7918 15.5645C20.5981 16.1063 21.0056 16.2355 21.4204 16.2999C22.8052 16.5149 23.534 17.3043 23.6724 18.6393C23.7097 19.0016 23.9476 19.2952 24.3096 19.2539C24.8114 19.1961 24.8567 18.7643 24.8413 18.3544C24.8661 16.8545 23.1126 15.1209 21.6162 15.1568Z" fill="#7B519D"/>
</svg>
