<svg width="40" height="40" viewBox="0 0 40 40" fill="none" xmlns="http://www.w3.org/2000/svg">
<path opacity="0.1" d="M20 40C31.0457 40 40 31.0457 40 20C40 8.9543 31.0457 0 20 0C8.9543 0 0 8.9543 0 20C0 31.0457 8.9543 40 20 40Z" fill="#78C515"/>
<path d="M30.3703 26.3175L27.0169 22.9561C26.349 22.2894 25.2428 22.3096 24.5516 23.0026L22.8622 24.6956C22.7554 24.6366 22.6449 24.575 22.5288 24.5097C21.4619 23.9172 20.0017 23.1051 18.4651 21.5639C16.924 20.0195 16.113 18.5537 15.52 17.4838C15.4575 17.3704 15.3975 17.2611 15.3383 17.1573L16.4722 16.0225L17.0297 15.4631C17.7219 14.7691 17.741 13.6608 17.0746 12.9921L13.7212 9.6303C13.0548 8.96253 11.9482 8.98279 11.2559 9.67682L10.3108 10.6295L10.3366 10.6552C10.0197 11.0605 9.75492 11.5279 9.55785 12.032C9.37619 12.5118 9.26309 12.9697 9.21137 13.4285C8.76857 17.1077 10.4461 20.4703 14.9986 25.0331C21.2915 31.3399 26.3628 30.8635 26.5816 30.8402C27.0581 30.7831 27.5147 30.669 27.9788 30.4884C28.4774 30.2932 28.9434 30.0281 29.3476 29.7112L29.3682 29.7296L30.3257 28.7899C31.0165 28.096 31.0364 26.9873 30.3703 26.3175Z" fill="#78C515"/>
</svg>
