<svg width="48" height="52" viewBox="0 0 48 52" fill="none" xmlns="http://www.w3.org/2000/svg">
<path fill-rule="evenodd" clip-rule="evenodd" d="M12.4889 0.131983C11.0436 0.471747 9.58697 1.73707 9.06806 3.10321C8.76688 3.89609 8.76363 4.00888 8.76363 13.7043V23.5039H5.7904C3.99181 23.5039 2.55849 23.568 2.16243 23.6664C1.27612 23.8861 0.397299 24.7517 0.174204 25.6247C-0.0580682 26.5331 -0.0580682 42.4488 0.174204 43.3572C0.397299 44.2302 1.27612 45.0958 2.16243 45.3156C2.55849 45.4139 3.99181 45.478 5.7904 45.478H8.76363V46.7939C8.76363 47.8013 8.83508 48.298 9.06806 48.9114C9.45495 49.9298 10.5127 51.0494 11.5722 51.5619L12.3642 51.945L28.0262 51.9827C45.3382 52.0245 44.467 52.0659 45.8469 51.1359C46.2251 50.8811 46.7715 50.333 47.0612 49.918C48.0683 48.4754 48.0246 49.3828 47.9834 30.7595L47.9464 14.0444L40.8129 7.02211L33.6795 0L23.3042 0.0141854C17.5979 0.0221128 12.7309 0.0751009 12.4889 0.131983ZM32.3439 6.73992C32.3439 11.3079 32.3582 11.5705 32.6483 12.3343C33.0352 13.3527 34.0929 14.4723 35.1525 14.9848L35.9445 15.3679L40.9924 15.4108L46.0402 15.4535V31.3777C46.0402 43.0561 45.9963 47.4739 45.8753 47.9467C45.6694 48.7526 44.7498 49.7045 43.9718 49.9172C43.6014 50.0186 38.5873 50.0663 28.2415 50.0667L13.0551 50.0675L12.3118 49.7027C11.8281 49.4653 11.4364 49.1413 11.1899 48.7747C10.8556 48.2777 10.8052 48.0502 10.7625 46.8447L10.714 45.478H21.1133C28.5732 45.478 31.6979 45.4321 32.1675 45.3156C33.0538 45.0958 33.9327 44.2302 34.1558 43.3572C34.388 42.4488 34.388 26.5331 34.1558 25.6247C33.9327 24.7517 33.0538 23.8861 32.1675 23.6664C31.6979 23.5498 28.5763 23.5039 21.1266 23.5039H10.7404V13.8125C10.7404 4.24795 10.7444 4.11319 11.0372 3.5171C11.3525 2.87568 11.9508 2.35443 12.6466 2.11494C12.9249 2.01911 16.3765 1.96529 22.7071 1.95806L32.3439 1.94707V6.73992ZM40.5757 13.4579L36.6626 13.4949L35.908 13.1313C35.4052 12.8889 35.0263 12.5785 34.7724 12.2008L34.3913 11.6339L34.3516 7.52056L34.3119 3.40737L39.4003 8.41412L44.4887 13.4209L40.5757 13.4579ZM31.9973 25.7924L32.3439 26.1337V34.491V42.8482L31.9973 43.1895L31.6508 43.5309H17.165H2.67922L2.33272 43.1895L1.98607 42.8482V34.491V26.1337L2.33272 25.7924L2.67922 25.451H17.165H31.6508L31.9973 25.7924ZM23.6837 30.4804C21.9691 30.9541 21.2335 33.1448 22.4224 34.2371C22.9657 34.7364 23.2486 34.8609 24.7234 35.2496C25.4339 35.437 26.1049 35.6634 26.2143 35.7529C26.5468 36.0247 26.4596 36.68 26.0563 36.9402C25.4825 37.3107 24.0388 37.1381 23.1477 36.5925L22.4416 36.1602L22.0625 36.5977C21.4234 37.3355 21.4245 37.3529 22.1445 37.8079C23.9752 38.9649 26.4738 38.9141 27.59 37.6972C28.4585 36.7504 28.4599 35.4766 27.5933 34.6715C27.1298 34.241 26.4526 33.9787 24.6196 33.5196C23.6116 33.2672 23.3011 32.6889 23.8719 32.1267C24.3589 31.647 25.803 31.7991 26.7185 32.4266L27.0943 32.6842L27.5304 32.0998C27.7705 31.7786 27.9667 31.4692 27.9667 31.4126C27.9667 31.3559 27.5543 31.1096 27.0502 30.8652C26.0265 30.3689 24.655 30.2121 23.6837 30.4804ZM6.39304 30.9097C6.58324 31.1584 7.26099 32.0685 7.89935 32.9325L9.05973 34.5031L8.32069 35.5054C7.91418 36.0565 7.24151 36.9612 6.82567 37.5159L6.06969 38.5242L7.09904 38.5214L8.12824 38.5185L9.10209 37.1959L10.0758 35.8731L11.0556 37.1986L12.0352 38.5242H13.0116C13.5486 38.5242 13.9859 38.4773 13.9833 38.4199C13.9807 38.3624 13.3463 37.4707 12.5733 36.438C11.8004 35.4054 11.1934 34.4911 11.2245 34.4064C11.2555 34.3217 11.8901 33.4379 12.6345 32.4424C13.3789 31.447 13.988 30.5932 13.988 30.5451C13.988 30.4971 13.5551 30.4577 13.0259 30.4577H12.0639L11.0971 31.779C10.5655 32.5056 10.1207 33.1002 10.1087 33.1002C10.0968 33.1002 9.65206 32.5056 9.1203 31.779L8.15365 30.4577H7.10045H6.04738L6.39304 30.9097ZM15.1176 34.491V38.5242H18.0122H20.9068V37.7593V36.9943H18.8594H16.812V33.726V30.4577H15.9648H15.1176V34.491Z" fill="#CECECE"/>
</svg>
