<svg width="48" height="52" viewBox="0 0 48 52" fill="none" xmlns="http://www.w3.org/2000/svg">
<path fill-rule="evenodd" clip-rule="evenodd" d="M12.4766 0.150793C11.0684 0.476678 9.68299 1.59166 9.07136 2.89145C8.76951 3.53308 8.76498 3.65874 8.69514 13.5381L8.62445 23.5354L5.23122 23.6048C1.98362 23.6713 1.81523 23.6881 1.30653 23.9987C1.01429 24.1772 0.600742 24.6145 0.387534 24.9707L0 25.6182V34.3658C0 39.177 0.0486362 43.2841 0.108018 43.4928C0.26552 44.045 1.04271 44.8544 1.69534 45.1456C2.18962 45.3661 2.67358 45.3988 5.47865 45.4015L8.69514 45.4045V46.7878C8.69514 47.8658 8.76258 48.3483 9.00095 48.9737C9.41521 50.0612 10.5811 51.2084 11.7359 51.665L12.5832 52H28.2769C43.335 52 43.9991 51.9893 44.6775 51.737C46.2388 51.1561 47.4186 49.9056 47.8127 48.4137C47.9632 47.8439 48 44.4006 48 30.9005V14.0965L40.8232 7.04826L33.6464 0L23.3269 0.013885C17.6511 0.0216607 12.7686 0.083172 12.4766 0.150793ZM32.335 6.90788C32.3753 11.669 32.3896 11.8986 32.6851 12.5268C33.1446 13.5036 34.1484 14.4792 35.1716 14.9432L36.053 15.3431L41.0368 15.3845L46.0206 15.4257V31.4058C46.0206 42.9776 45.9761 47.5316 45.8593 47.9147C45.6379 48.6403 45.009 49.3496 44.2795 49.6964C43.6719 49.9854 43.601 49.9866 28.2545 49.9866H12.8398L12.2166 49.6635C11.8739 49.486 11.4027 49.0745 11.1694 48.7495C10.7791 48.2059 10.7414 48.0487 10.6967 46.7857L10.6482 45.4129L21.3712 45.374C31.5337 45.3372 32.1201 45.3215 32.5891 45.0753C33.2857 44.7097 33.5692 44.4395 33.8765 43.848C34.131 43.3583 34.1443 42.8922 34.1443 34.4339C34.1443 26.5047 34.1193 25.4865 33.9151 25.0905C33.5885 24.4571 33.3041 24.1722 32.6598 23.8331C32.0979 23.5373 32.0258 23.5351 21.3816 23.4965L10.669 23.4576L10.707 13.6153L10.7452 3.77274L11.1694 3.18137C11.4027 2.85618 11.8739 2.44463 12.2166 2.26703L12.8398 1.94393H22.5664H32.293L32.335 6.90788ZM40.6842 13.4407C38.1418 13.4685 36.7158 13.4299 36.3358 13.323C35.559 13.1044 34.9087 12.5908 34.5319 11.8985C34.2279 11.34 34.2133 11.1535 34.1727 7.28972L34.1306 3.26302L39.2988 8.33111L44.4671 13.3992L40.6842 13.4407ZM31.9592 25.7508L32.3063 26.0915V34.4352V42.779L31.9574 43.1217L31.6083 43.4645L17.0288 43.4278L2.4492 43.3912L2.17888 43.0634C1.91958 42.7489 1.90869 42.4013 1.90869 34.4801C1.90869 28.9044 1.95761 26.135 2.05926 25.9483C2.14212 25.7963 2.34896 25.6169 2.51876 25.5497C2.68913 25.4824 9.2833 25.4235 17.2199 25.4186L31.6123 25.4099L31.9592 25.7508ZM7.13991 31.0296V31.7897L9.19027 31.828L11.2406 31.8665L9.11958 34.4122C7.02256 36.929 6.99853 36.9657 6.99853 37.643V38.3281L10.3564 38.2909L13.7143 38.2537L13.757 37.5247L13.7998 36.7957H11.6716C10.5012 36.7957 9.54514 36.7489 9.54712 36.6916C9.54924 36.6342 10.5036 35.4428 11.6679 34.0437C13.6881 31.6164 13.785 31.4719 13.785 30.8848V30.2697H10.4624H7.13991V31.0296ZM16.3299 34.227V38.1842H17.1782H18.0265V34.227V30.2697H17.1782H16.3299V34.227ZM20.8542 34.227V38.1842H21.7732H22.6922V36.9346V35.6849L24 35.6835C25.0757 35.6824 25.4332 35.6244 26.0147 35.3561C26.8291 34.9804 27.1192 34.6977 27.4232 33.9834C28.0314 32.5537 27.1923 30.8239 25.6922 30.4147C25.4031 30.3358 24.1961 30.2709 23.0103 30.2705L20.8542 30.2697V34.227ZM25.3406 32.0816C26.0115 32.4977 25.9852 33.5515 25.2962 33.8598C25.1008 33.9472 24.435 34.0187 23.8166 34.0187H22.6922V32.8905V31.7622L23.8586 31.824C24.5122 31.8586 25.1637 31.9717 25.3406 32.0816Z" fill="#CECECE"/>
</svg>
